<svg xmlns="http://www.w3.org/2000/svg" width="157.224" height="36.798" viewBox="0 0 157.224 36.798">
  <g id="Group_6144" data-name="Group 6144" transform="translate(-47 -16.905)">
    <g id="Group_4057" data-name="Group 4057" transform="translate(-14.687 -80.968)">
      <g id="Group_4057-2" data-name="Group 4057" transform="translate(94.465 112.564)">
        <path id="Path_9029" data-name="Path 9029" d="M201.08,184.929l1.406-2.278a6.965,6.965,0,0,0,3.684,1.228c.654,0,.951-.2.951-.614s-.594-.614-1.723-.911c-2.119-.574-3.8-1.268-3.8-3.466,0-2.278,1.822-3.545,4.3-3.545a8.38,8.38,0,0,1,4.417,1.248l-1.287,2.377a7.246,7.246,0,0,0-3.169-.99c-.574,0-.871.218-.871.554,0,.416.614.614,1.743.951,2.119.614,3.8,1.327,3.8,3.447,0,2.357-1.763,3.585-4.377,3.585A8.642,8.642,0,0,1,201.08,184.929Z" transform="translate(-201.08 -171.817)" fill="#fff"/>
        <path id="Path_9030" data-name="Path 9030" d="M245.386,183.281V176.27h3.763v5.8c0,1.169.614,1.8,1.525,1.8a1.582,1.582,0,0,0,1.565-1.8v-5.8H256v10.715h-3.763v-1.466a3.942,3.942,0,0,1-3.208,1.7C246.753,187.223,245.386,185.717,245.386,183.281Z" transform="translate(-234.968 -172.527)" fill="#fff"/>
        <path id="Path_9031" data-name="Path 9031" d="M293.567,184.929l1.406-2.278a6.963,6.963,0,0,0,3.684,1.228c.653,0,.951-.2.951-.614s-.594-.614-1.723-.911c-2.119-.574-3.8-1.268-3.8-3.466,0-2.278,1.822-3.545,4.3-3.545a8.381,8.381,0,0,1,4.417,1.248l-1.287,2.377a7.246,7.246,0,0,0-3.169-.99c-.574,0-.871.218-.871.554,0,.416.614.614,1.743.951,2.119.614,3.8,1.327,3.8,3.447,0,2.357-1.763,3.585-4.377,3.585A8.642,8.642,0,0,1,293.567,184.929Z" transform="translate(-271.819 -171.817)" fill="#fff"/>
        <path id="Path_9032" data-name="Path 9032" d="M337.873,183.281V176.27h3.763v5.8c0,1.169.614,1.8,1.525,1.8a1.582,1.582,0,0,0,1.565-1.8v-5.8h3.763v10.715h-3.763v-1.466a3.942,3.942,0,0,1-3.209,1.7C339.24,187.223,337.873,185.717,337.873,183.281Z" transform="translate(-305.707 -172.527)" fill="#fff"/>
        <path id="Path_9033" data-name="Path 9033" d="M389.508,175.674h3.763v2.159a3.279,3.279,0,0,1,3.387-2.337v3.961h-.317c-1.961,0-3.07,1.129-3.07,3.6v3.327h-3.763Z" transform="translate(-345.2 -171.931)" fill="#fff"/>
        <path id="Path_9034" data-name="Path 9034" d="M423.453,175.674h3.763v2.159A3.279,3.279,0,0,1,430.6,175.5v3.961h-.317c-1.961,0-3.07,1.129-3.07,3.6v3.327h-3.763Z" transform="translate(-371.163 -171.931)" fill="#fff"/>
        <path id="Path_9035" data-name="Path 9035" d="M453.02,183.36c0-2.218,1.683-3.367,4.2-3.367a8.219,8.219,0,0,1,2.575.416v-.178c0-1.109-.693-1.743-2.139-1.743a7.544,7.544,0,0,0-2.951.594l-.772-2.654a10.763,10.763,0,0,1,4.337-.832,5.506,5.506,0,0,1,4.08,1.307,4.478,4.478,0,0,1,1.148,3.407v6.16h-3.723V185.36a4.041,4.041,0,0,1-3.149,1.347C454.585,186.707,453.02,185.538,453.02,183.36Zm6.813-.772v-.5a3.942,3.942,0,0,0-1.466-.277c-1.089,0-1.723.535-1.723,1.367a1.18,1.18,0,0,0,1.327,1.168A1.722,1.722,0,0,0,459.833,182.587Z" transform="translate(-393.778 -172.011)" fill="#fff"/>
        <path id="Path_9036" data-name="Path 9036" d="M501.959,169.461c0-3.486,2.179-5.6,4.714-5.6a4.1,4.1,0,0,1,3.288,1.545v-5.05h3.763v14.458h-3.763v-1.426a3.972,3.972,0,0,1-3.268,1.664C504.157,175.046,501.959,172.927,501.959,169.461Zm8.061-.04a2.2,2.2,0,1,0-2.179,2.476A2.259,2.259,0,0,0,510.02,169.421Z" transform="translate(-431.209 -160.35)" fill="#fff"/>
        <path id="Path_9037" data-name="Path 9037" d="M556.626,180.864a5.931,5.931,0,1,1,5.9,5.605A5.707,5.707,0,0,1,556.626,180.864Zm8.18,0a2.323,2.323,0,0,0-2.278-2.416,2.256,2.256,0,0,0-2.238,2.416,2.323,2.323,0,0,0,2.278,2.416A2.256,2.256,0,0,0,564.806,180.864Z" transform="translate(-473.021 -171.753)" fill="#fff"/>
        <path id="Path_9038" data-name="Path 9038" d="M611.63,175.674h3.763v2.159a3.279,3.279,0,0,1,3.387-2.337v3.961h-.317c-1.961,0-3.07,1.129-3.07,3.6v3.327H611.63Z" transform="translate(-515.091 -171.931)" fill="#fff"/>
        <path id="Path_9039" data-name="Path 9039" d="M642.881,180.864a5.375,5.375,0,0,1,5.407-5.6c3.7,0,5.407,2.713,5.407,5.862,0,.238,0,.515-.02.772h-7.17a2.212,2.212,0,0,0,2.317,1.763,3.233,3.233,0,0,0,2.377-1.089l2.08,1.723a5.611,5.611,0,0,1-4.654,2.179A5.4,5.4,0,0,1,642.881,180.864Zm7.289-.891c-.138-1.188-.832-1.941-1.862-1.941-.99,0-1.664.772-1.862,1.941Z" transform="translate(-538.994 -171.753)" fill="#fff"/>
        <path id="Path_9040" data-name="Path 9040" d="M690.136,184.929l1.406-2.278a6.964,6.964,0,0,0,3.684,1.228c.654,0,.951-.2.951-.614s-.594-.614-1.723-.911c-2.119-.574-3.8-1.268-3.8-3.466,0-2.278,1.822-3.545,4.3-3.545a8.381,8.381,0,0,1,4.417,1.248l-1.287,2.377a7.245,7.245,0,0,0-3.169-.99c-.575,0-.871.218-.871.554,0,.416.614.614,1.743.951,2.119.614,3.8,1.327,3.8,3.447,0,2.357-1.763,3.585-4.377,3.585A8.641,8.641,0,0,1,690.136,184.929Z" transform="translate(-575.137 -171.817)" fill="#fff"/>
      </g>
      <path id="Path_9041" data-name="Path 9041" d="M63.869,134.638a3.54,3.54,0,0,1-1.72-.721,1.084,1.084,0,1,1,1.3-1.735,1.564,1.564,0,0,0,1.357.238.862.862,0,0,0,.569-.639,3.755,3.755,0,0,0-.172-1.51,5.732,5.732,0,0,1-.221-2.523,4.12,4.12,0,0,1,1.089-1.956,2.254,2.254,0,0,0,.641-1.156c.012-.43-.089-.732-.829-1.266-.478-.355-.995-.427-1.352-.957a1.5,1.5,0,0,1-.183-.745,1.1,1.1,0,0,1,1.461-.849,2.524,2.524,0,0,0,2.482-.61c.127-.222.066-.47-.137-1.074a4.282,4.282,0,0,1-.286-1.718A2.813,2.813,0,0,1,70,114.887c.664-.29.818-.365.858-.647.159-.792-.709-1.777-1.531-2.755A8.882,8.882,0,0,1,67.76,109.3a8.29,8.29,0,0,1-.233-4.49c.27-1.927.5-3.572-.831-5.006a1.211,1.211,0,0,1-.185-1.416,1.136,1.136,0,0,1,1.752-.186c2.039,2.2,1.73,4.748,1.44,6.817a6.276,6.276,0,0,0,.062,3.316,10,10,0,0,0,1.206,1.655c1.07,1.252,2.39,2.78,2.039,4.6a3.078,3.078,0,0,1-2.142,2.288c-.764.324-.771.371-.764.66a1.962,1.962,0,0,0,.21.892,3.17,3.17,0,0,1-.053,2.772,2.919,2.919,0,0,1-2.024,1.442,3.083,3.083,0,0,1,.73,1.972,4.249,4.249,0,0,1-1.115,2.48,3.917,3.917,0,0,0-.675,1.056,3.355,3.355,0,0,0,.219,1.516,5.514,5.514,0,0,1,.208,2.617,2.991,2.991,0,0,1-1.982,2.166A3.793,3.793,0,0,1,63.869,134.638Z" transform="translate(0)" fill="#fff"/>
      <g id="Group_4058" data-name="Group 4058" transform="translate(72.548 117.002)">
        <path id="Path_9042" data-name="Path 9042" d="M119.607,180.235c1.551-1.228,3.095,1.015,2.267,2.357-1.183,2.047-3.923,1.179-5.2.234-3.855-3.142-8.338-.115-8.8,2.106a5.114,5.114,0,0,1,7.884-1.2c4.053,3.765,9.693-.4,7.112-3.843C121.366,178.171,119.43,180.322,119.607,180.235Z" transform="translate(-107.876 -179.222)" fill="#fff"/>
        <path id="Path_9043" data-name="Path 9043" d="M119.657,192.436c4.842,2.969,10.564-1.187,7.468-6.406.625,3.152-2.112,5.635-5.48,5.026a8.685,8.685,0,0,1-4.129-1.882,4.954,4.954,0,0,0-6.048.233C115.626,188.368,117.269,190.923,119.657,192.436Z" transform="translate(-110.624 -184.429)" fill="#fff"/>
      </g>
    </g>
  </g>
</svg>
